<svg width="230" height="225" viewBox="0 0 230 225" fill="none" xmlns="http://www.w3.org/2000/svg">
<path fill-rule="evenodd" clip-rule="evenodd" d="M0 115C0 166.309 33.6025 209.771 80.002 224.578C79.9458 219.812 81.0703 214.332 82.3198 208.242C83.8354 200.856 85.5352 192.574 85.5352 183.584C85.5352 167.833 88.8652 158.606 93.7476 153.241C77.9375 148.462 70.083 137.854 66.8589 124.404C66.6641 124.394 66.4658 124.375 66.2637 124.348C56.8232 123.091 38.0957 95.0004 48.0005 84.5004C64.5005 67.0088 75.1318 63.5768 87.5 61C89.4473 60.5942 90.917 60.1388 91.9668 59.8132C92.9575 59.5061 93.5752 59.3147 93.8687 59.39C99.8921 57.1958 106.917 56 115 56C122.063 56 128.333 56.9968 133.839 58.8156C134.169 58.8356 134.608 58.8962 135.16 58.9725C136.238 59.1216 137.748 59.3302 139.714 59.4115C152.205 59.9277 163.147 61.571 182.179 76.1099C193.603 84.8374 180.081 115.584 171.09 118.367C168.619 119.132 166.511 118.462 164.572 116.717C162.815 135.497 155.229 149.259 134.1 154.101C139.062 160.088 142.25 170.152 142.25 186.646C142.25 190.921 142.685 194.987 143.333 198.836C144.933 197.815 147.099 196.711 150 195.5C158.217 191.811 167.144 182.912 173.975 176.101C178.453 171.637 182.031 168.07 183.917 167.458C185.664 174.099 174.951 196.785 161.348 202.892C153.622 206.96 148.73 208.767 145.577 209.226C145.817 210.187 146.057 211.13 146.293 212.055C147.507 216.823 148.602 221.118 148.912 224.918C195.872 210.447 230 166.709 230 115C230 51.4873 178.513 0 115 0C51.4873 0 0 51.4873 0 115Z" fill="#24292F"/>
</svg>
